<svg xmlns="http://www.w3.org/2000/svg" width="28" height="28" viewBox="0 0 28 28"><path fill-rule="evenodd" clip-rule="evenodd" d="M26.293,21.45L15.989,4.195c0,0-0.583-1.106-1.56-1.106 c-1.033,0-1.483,1.017-1.483,1.017L2.605,21.597c0,0-0.792,1.044-0.377,1.805c0.432,0.791,1.741,0.622,1.741,0.622l20.842-0.003 c0,0,1.559,0.114,1.979-0.554C27.238,22.758,26.293,21.45,26.293,21.45z"/><path fill="#FEFEFE" d="M14.563,9.971c-2.041,0-3.645,1.166-3.645,2.114c0,0.655,0,1.53,0,1.53l2.405-0.011c0,0,0-0.718,0-1.01 c0-0.291,0.219-0.875,1.093-0.875c1.167,0,1.593,0.729,1.593,1.386c0,0.655-0.208,1.312-0.646,1.604 c-0.384,0.256-2.489,1.166-2.489,1.822s0,1.502,0,1.502h3.156c0,0,0-0.992,0-1.356s0.146-0.729,0.582-1.094 c0.438-0.364,1.594-0.874,1.594-2.551C18.207,10.991,16.604,9.971,14.563,9.971z M12.948,22.1h3.083v-2.26h-3.083V22.1z"/></svg>