<svg xmlns="http://www.w3.org/2000/svg" width="47.994" height="18.998" viewBox="0 0 47.994 18.998"><path fill-rule="evenodd" clip-rule="evenodd" fill="#FEFEFE" d="M18.81,3.335H9.961c-3.209,0-5.811,2.883-5.811,6.088 s2.602,6.257,5.811,6.257h8.848c3.209,0,5.81-3.052,5.81-6.257S22.019,3.335,18.81,3.335z"/><path fill="#A3A3A3" d="M38.578,0.864H9.651c-4.442,0-8.043,4.141-8.043,8.579s3.601,8.7,8.043,8.7h28.927 c4.442,0,8.043-4.262,8.043-8.7S43.021,0.864,38.578,0.864z M18.567,14.799H10.57c-3.033,0-5.49-2.456-5.49-5.485 c0-3.03,2.458-5.486,5.49-5.486h7.997c3.032,0,5.49,2.456,5.49,5.486C24.058,12.343,21.6,14.799,18.567,14.799z"/><text transform="matrix(1.001 0 0 1 28.14 12.859)" fill="#FFFFFF" font-family="'Gulim'" font-size="9.046">Off</text></svg>