<svg xmlns="http://www.w3.org/2000/svg" width="47.994" height="18.998" viewBox="0 0 47.994 18.998"><path fill-rule="evenodd" clip-rule="evenodd" fill="#FEFEFE" d="M37.825,3.392h-8.848c-3.209,0-5.811,2.826-5.811,6.032 s2.602,6.201,5.811,6.201h8.848c3.209,0,5.812-2.995,5.812-6.201S41.034,3.392,37.825,3.392z"/><path fill="#438946" d="M38.344,0.864H9.416c-4.442,0-8.043,4.141-8.043,8.579s3.601,8.7,8.043,8.7h28.928 c4.442,0,8.043-4.262,8.043-8.7S42.786,0.864,38.344,0.864z M37.424,14.799h-7.997c-3.032,0-5.49-2.456-5.49-5.485 c0-3.03,2.458-5.486,5.49-5.486h7.997c3.032,0,5.49,2.456,5.49,5.486C42.914,12.343,40.456,14.799,37.424,14.799z"/><text transform="matrix(1.001 0 0 1 8.219 12.859)" fill="#FFFFFF" font-family="'Gulim'" font-size="9.046">On</text></svg>