<svg xmlns="http://www.w3.org/2000/svg" width="20.998" height="15.748" viewBox="0 0 20.998 15.748"><path fill-rule="evenodd" clip-rule="evenodd" fill="#314B30" d="M-0.047 -0.094H21.044V15.747H-0.047z"/><path fill-rule="evenodd" clip-rule="evenodd" fill="#A9D337" d="M16.498 10.499H19.498V11.999H16.498zM16.498 12.749H19.498V14.249H16.498zM16.498 8.249H19.498V9.749H16.498zM12.749 10.499H15.748000000000001V11.999H12.749zM12.749 12.749H15.748000000000001V14.249H12.749z"/><path fill-rule="evenodd" clip-rule="evenodd" fill="#E8EFD4" d="M12.749 8.249H15.748000000000001V9.749H12.749z"/><path fill-rule="evenodd" clip-rule="evenodd" fill="#A9D337" d="M8.999 10.499H11.999V11.999H8.999zM8.999 12.749H11.999V14.249H8.999z"/><path fill-rule="evenodd" clip-rule="evenodd" fill="#E8EFD4" d="M8.999 8.249H11.999V9.749H8.999z"/><path fill-rule="evenodd" clip-rule="evenodd" fill="#A9D337" d="M5.25 12.749H8.25V14.249H5.25z"/><path fill-rule="evenodd" clip-rule="evenodd" fill="#E8EFD4" d="M5.25 10.499H8.25V11.999H5.25zM5.25 8.249H8.25V9.749H5.25zM1.5 12.749H4.5V14.249H1.5zM1.5 10.499H4.5V11.999H1.5zM1.5 8.249H4.5V9.749H1.5z"/><path fill-rule="evenodd" clip-rule="evenodd" fill="#A9D337" d="M1.5 3H4.5V4.5H1.5z"/></svg>