<svg xmlns="http://www.w3.org/2000/svg" width="28" height="28" viewBox="0 0 28 28"><path fill-rule="evenodd" clip-rule="evenodd" d="M26.293,21.45L15.989,4.195c0,0-0.583-1.106-1.56-1.106 c-1.033,0-1.483,1.017-1.483,1.017L2.605,21.597c0,0-0.792,1.044-0.377,1.805c0.432,0.791,1.741,0.622,1.741,0.622l20.842-0.003 c0,0,1.559,0.114,1.979-0.554C27.238,22.758,26.293,21.45,26.293,21.45z"/><path fill="#FFFFFF" d="M12.961,21.062h3.058v-2.115h-3.058V21.062z M16.039,9.943h-3.111l0.016,6.063H16L16.039,9.943z"/></svg>