<svg xmlns="http://www.w3.org/2000/svg" width="16" height="16" viewBox="0 0 16 16"><path d="M11.045,9.336c0,0-1.275-1.163-2.913-1.163c-1.91,0-3.099,1.115-3.099,1.115c-0.288,0.221-0.566,0.8-0.293,1.174 c0.204,0.279,0.65,0.324,0.953,0.104c0,0,0.773-0.881,2.453-0.881c1.206,0,2.239,0.912,2.239,0.912 c0.225,0.095,0.561,0.319,0.906-0.104C11.621,10.09,11.285,9.509,11.045,9.336z M13.463,7.348c0,0-2.441-2.114-5.398-2.114 c-2.928,0-5.333,2.088-5.333,2.088c-0.34,0.249-0.479,0.638-0.334,1.04c0.137,0.379,0.638,0.5,0.937,0.334 c0,0,1.937-1.959,4.771-1.959c2.591,0,4.41,1.707,4.41,1.707c0.292,0.298,0.861,0.401,1.132,0.063 C13.952,8.124,13.639,7.474,13.463,7.348z M15.396,4.981c0,0-3-3.09-7.332-3.09c-4.372,0-7.455,3.077-7.455,3.077 c-0.3,0.3-0.3,0.975,0,1.274c0.3,0.301,0.787,0.301,1.087,0c0,0,2.01-2.542,6.327-2.542c4.117,0,6.372,2.58,6.372,2.58 c0.307,0.293,0.794,0.282,1.088-0.025C15.777,5.949,15.703,5.274,15.396,4.981z M8.065,11.327c-0.942,0-1.705,0.764-1.705,1.705 c0,0.942,0.763,1.706,1.705,1.706s1.706-0.764,1.706-1.706C9.771,12.091,9.007,11.327,8.065,11.327z"/></svg>