<svg xmlns="http://www.w3.org/2000/svg" width="24" height="24" viewBox="0 0 24 24"><circle fill-rule="evenodd" clip-rule="evenodd" fill="#868F37" cx="12" cy="12" r="11.396"/><path fill="#FFFFFF" d="M11.045,11.336c0,0-1.275-1.163-2.913-1.163c-1.91,0-3.099,1.115-3.099,1.115 c-0.288,0.221-0.566,0.8-0.293,1.174c0.204,0.279,0.65,0.324,0.953,0.104c0,0,0.773-0.881,2.453-0.881 c1.206,0,2.239,0.912,2.239,0.912c0.225,0.095,0.561,0.319,0.906-0.104C11.621,12.09,11.286,11.509,11.045,11.336z M13.462,9.348 c0,0-2.44-2.114-5.397-2.114c-2.928,0-5.333,2.088-5.333,2.088c-0.34,0.249-0.479,0.638-0.334,1.04 c0.137,0.379,0.638,0.5,0.937,0.334c0,0,1.937-1.959,4.771-1.959c2.591,0,4.41,1.707,4.41,1.707 c0.292,0.298,0.861,0.401,1.132,0.063C13.952,10.124,13.638,9.474,13.462,9.348z M8.065,13.327c-0.942,0-1.705,0.764-1.705,1.705 c0,0.942,0.763,1.706,1.705,1.706s1.706-0.764,1.706-1.706C9.771,14.091,9.007,13.327,8.065,13.327z"/><circle fill-rule="evenodd" clip-rule="evenodd" fill="#FFFFFF" cx="17" cy="7.211" r="2.273"/><path fill-rule="evenodd" clip-rule="evenodd" fill="#FFFFFF" d="M18.303,11.37h-2.488c-0.783,0-1.418,0.634-1.418,1.417v4.596 c0,0.783,0.635,1.417,1.418,1.417h2.488c0.782,0,1.417-0.634,1.417-1.417v-4.596C19.72,12.004,19.085,11.37,18.303,11.37z"/></svg>