<svg xmlns="http://www.w3.org/2000/svg" width="24" height="24" viewBox="0 0 24 24"><circle fill-rule="evenodd" clip-rule="evenodd" fill="#3A533B" cx="12" cy="12" r="11.396"/><path fill="#FFFFFF" d="M15.42,13.796c0,0-1.393-1.192-3.275-1.192c-2.194,0-3.417,1.066-3.417,1.066 c-0.331,0.253-0.794,0.847-0.48,1.276c0.234,0.321,0.747,0.372,1.095,0.119c0,0,0.889-1.013,2.818-1.013 c1.385,0,2.572,1.049,2.572,1.049c0.259,0.108,0.645,0.366,1.042-0.119C16.152,14.52,15.696,13.995,15.42,13.796z M18.27,11.512 c0,0-2.805-2.357-6.202-2.357c-3.364,0-6.055,2.327-6.055,2.327c-0.391,0.286-0.622,0.59-0.455,1.052 c0.157,0.435,0.732,0.574,1.076,0.384c0,0,2.225-2.251,5.48-2.251c2.977,0,5.067,1.961,5.067,1.961 c0.336,0.342,0.989,0.461,1.301,0.072C18.832,12.26,18.471,11.656,18.27,11.512z M20.563,8.865c0,0-3.518-3.406-8.495-3.406 c-5.022,0-8.564,3.391-8.564,3.391c-0.345,0.346-0.345,0.905,0,1.25c0.345,0.345,0.904,0.345,1.25,0c0,0,2.309-2.921,7.269-2.921 c4.731,0,7.321,2.964,7.321,2.964c0.354,0.338,0.912,0.324,1.25-0.028C20.928,9.762,20.916,9.202,20.563,8.865z M12.068,15.94 c-1.082,0-1.959,0.877-1.959,1.959s0.877,1.96,1.959,1.96s1.959-0.878,1.959-1.96S13.15,15.94,12.068,15.94z"/></svg>